<svg width="24" height="24" viewBox="0 0 24 24" fill="none" xmlns="http://www.w3.org/2000/svg">
<rect width="24" height="24" fill="#2C2C2C"/>
<g id="&#208;&#145;&#208;&#187;&#208;&#190;&#208;&#186; &#208;&#180;&#208;&#190;&#208;&#186;&#209;&#131;&#208;&#188;&#208;&#181;&#208;&#189;&#209;&#130;&#209;&#139;-&#208;&#178;&#208;&#190;&#208;&#191;&#209;&#128;&#208;&#190;&#209;&#129;&#209;&#139;">
<path d="M-92 -286C-92 -287.105 -91.1046 -288 -90 -288H1514C1515.1 -288 1516 -287.105 1516 -286V703C1516 704.105 1515.1 705 1514 705H-90C-91.1046 705 -92 704.105 -92 703V-286Z" fill="white"/>
<g id="&#208;&#148;&#208;&#190;&#208;&#186;&#209;&#131;&#208;&#188;&#208;&#181;&#208;&#189;&#209;&#130;&#209;&#139;">
<g id="Frame 50">
<rect x="-32" y="-112" width="1488" height="196" rx="24" fill="#FAFAFA"/>
<g id="Frame 24">
<g id="Frame 1438" clip-path="url(#clip0_292_368)">
<g id="Frame">
<path id="Vector" d="M8.26653 14.68C8.08253 14.68 7.95853 14.698 7.89453 14.716V15.894C7.97053 15.912 8.06553 15.917 8.19653 15.917C8.67553 15.917 8.97053 15.675 8.97053 15.266C8.97053 14.9 8.71653 14.68 8.26653 14.68ZM11.7535 14.692C11.5535 14.692 11.4235 14.71 11.3465 14.728V17.338C11.4235 17.356 11.5475 17.356 11.6595 17.356C12.4765 17.362 13.0085 16.912 13.0085 15.96C13.0145 15.13 12.5295 14.692 11.7535 14.692Z" fill="#531A62"/>
<path id="Vector_2" d="M14 2H6C5.46957 2 4.96086 2.21071 4.58579 2.58579C4.21071 2.96086 4 3.46957 4 4V20C4 20.5304 4.21071 21.0391 4.58579 21.4142C4.96086 21.7893 5.46957 22 6 22H18C18.5304 22 19.0391 21.7893 19.4142 21.4142C19.7893 21.0391 20 20.5304 20 20V8L14 2ZM9.498 16.19C9.189 16.48 8.733 16.61 8.202 16.61C8.09904 16.6111 7.99613 16.6051 7.894 16.592V18.018H7V14.082C7.40345 14.0218 7.81112 13.9944 8.219 14C8.776 14 9.172 14.106 9.439 14.319C9.693 14.521 9.865 14.852 9.865 15.242C9.864 15.634 9.734 15.965 9.498 16.19ZM13.305 17.545C12.885 17.894 12.246 18.06 11.465 18.06C10.997 18.06 10.666 18.03 10.441 18V14.083C10.8446 14.0241 11.2521 13.9963 11.66 14C12.417 14 12.909 14.136 13.293 14.426C13.708 14.734 13.968 15.225 13.968 15.93C13.968 16.693 13.689 17.22 13.305 17.545ZM17 14.77H15.468V15.681H16.9V16.415H15.468V18.019H14.562V14.03H17V14.77ZM14 9H13V4L18 9H14Z" fill="#531A62"/>
</g>
</g>
</g>
</g>
</g>
<path d="M-90 -287H1514V-289H-90V-287ZM1515 -286V703H1517V-286H1515ZM1514 704H-90V706H1514V704ZM-91 703V-286H-93V703H-91ZM-90 704C-90.5523 704 -91 703.552 -91 703H-93C-93 704.657 -91.6569 706 -90 706V704ZM1515 703C1515 703.552 1514.55 704 1514 704V706C1515.66 706 1517 704.657 1517 703H1515ZM1514 -287C1514.55 -287 1515 -286.552 1515 -286H1517C1517 -287.657 1515.66 -289 1514 -289V-287ZM-90 -289C-91.6569 -289 -93 -287.657 -93 -286H-91C-91 -286.552 -90.5523 -287 -90 -287V-289Z" fill="white" fill-opacity="0.1"/>
</g>
<defs>
<clipPath id="clip0_292_368">
<rect width="24" height="24" fill="white"/>
</clipPath>
</defs>
</svg>
