<svg width="88" height="21" viewBox="0 0 88 21" fill="none" xmlns="http://www.w3.org/2000/svg">
<g id="MarkWeber" clip-path="url(#clip0_294_1033)">
<g id="&#208;&#161;&#208;&#187;&#208;&#190;&#208;&#185; 2">
<g id="cdr layer2">
<path id="Vector" fill-rule="evenodd" clip-rule="evenodd" d="M47.3119 4.32798C47.5235 4.54941 49.4285 9.82473 49.6277 10.476C49.826 11.1738 50.1062 11.8432 50.4618 12.4689C51.1217 12.6252 51.184 11.9349 51.3832 11.3878C52.4664 8.431 54.1098 4.11957 54.9316 1.2149C55.5043 -0.191854 55.5541 -0.569593 54.5207 -0.569593C53.4873 -0.569593 53.5994 0.133782 53.1885 1.04556C52.8274 2.77795 51.433 6.43811 50.9225 8.11839C50.9225 8.33982 50.9225 8.33982 50.6611 8.33982C49.802 5.83893 48.8059 2.77795 47.8348 0.303113C47.5733 -0.178829 47.1127 -0.283032 46.8014 0.798081C46.2785 2.51744 45.5564 4.56244 44.9961 6.2297C44.9961 6.2297 44.3238 8.33982 44.274 8.44403C43.9179 7.84509 43.6572 7.18963 43.502 6.50323C42.7301 4.51034 42.0578 2.36114 41.3979 0.368241C41.236 -0.00949776 41.236 -0.230931 40.875 -0.452363C40.5131 -0.592671 40.1218 -0.62866 39.742 -0.556567C38.7211 -0.387236 39.3809 0.472444 39.5926 1.11069C40.8376 4.61454 42.2196 8.82177 43.6016 12.1563C43.634 12.2389 43.6866 12.3112 43.7541 12.3657C43.8217 12.4203 43.9017 12.4553 43.9863 12.4672C44.0709 12.4791 44.157 12.4675 44.2359 12.4334C44.3148 12.3994 44.3838 12.3443 44.4358 12.2735C44.635 11.8697 47.1625 4.32798 47.3119 4.32798Z" fill="#221F20"/>
<path id="Vector_2" fill-rule="evenodd" clip-rule="evenodd" d="M0.19991 -0.348064C0.148444 -0.131077 0.165926 0.0975425 0.249712 0.303209C0.461371 1.21499 -0.161154 11.6093 0.000702728 12.0261C0.504667 12.2632 1.0697 12.3182 1.60681 12.1824C1.85582 11.9089 1.75622 11.6484 1.75622 11.2185C1.75622 9.38195 1.90563 7.61049 1.90563 5.7218C1.96788 5.01843 2.01768 4.53648 2.01768 4.10664C2.01768 3.6768 2.01768 3.7289 2.11728 3.6247C2.21689 3.5205 3.8479 6.4903 4.00976 6.81594C4.32102 7.45419 4.93109 8.4311 5.34196 9.18657C5.96448 10.3719 6.27575 9.56431 6.42515 9.29078C6.78621 8.80883 9.57512 3.68983 9.77433 3.58562C9.96109 3.79403 9.96109 8.91304 9.96109 9.29078C9.96109 12.0913 9.64983 12.3648 11.3431 12.2476C11.866 12.2476 11.9158 11.8177 11.866 11.3358C11.866 10.424 11.866 9.39498 11.866 8.4832C11.7291 6.16467 11.6295 3.5205 11.6295 1.21499C11.6295 0.941457 11.7291 -0.0875545 11.7291 -0.24386C11.5766 -0.423554 11.3702 -0.543444 11.1438 -0.583708C10.9174 -0.623972 10.6846 -0.582198 10.484 -0.465293C10.1229 -0.24386 10.0233 0.238082 9.76188 0.563719C8.71604 2.50451 7.30914 4.70581 6.32555 6.5424C5.96448 7.19368 5.96448 6.97224 5.65322 6.5424C4.9809 5.51339 4.10936 3.74193 3.49929 2.71292L2.25424 0.563719C2.08118 0.190229 1.85907 -0.156125 1.59436 -0.465293C1.24575 -0.725802 0.560974 -0.517395 0.19991 -0.348064Z" fill="#221F20"/>
<path id="Vector_3" fill-rule="evenodd" clip-rule="evenodd" d="M65.8984 5.68286C66.3391 5.30669 66.8619 5.05038 67.4201 4.93675C67.9784 4.82312 68.5549 4.8557 69.0982 5.03159C70.7417 5.78706 70.9533 8.32703 70.2312 9.56444C69.9237 10.0467 69.4806 10.4172 68.9632 10.6248C68.4459 10.8325 67.8796 10.867 67.3427 10.7237C66.8225 10.6163 66.3302 10.3943 65.8984 10.0724V5.68286ZM65.8984 3.84627C65.8208 2.42766 65.8208 1.00556 65.8984 -0.413056C65.8984 -0.999202 65.6992 -1.10341 65.1763 -0.894998C63.9312 -0.347929 63.9313 -0.569362 64.1056 0.615955C64.2052 1.21513 64.1056 8.15769 64.1056 9.1346C64.1056 11.0624 63.8441 11.5052 66.521 12.3128C67.2832 12.4801 68.0698 12.4844 68.8337 12.3254C69.5975 12.1665 70.3227 11.8476 70.9658 11.388C73.5928 9.13461 72.8707 2.77818 68.0773 3.26012C67.6594 3.28378 67.2435 3.33599 66.8322 3.41643C66.6704 3.46853 66.0603 3.84627 65.9856 3.84627H65.8984Z" fill="#221F20"/>
<path id="Vector_4" fill-rule="evenodd" clip-rule="evenodd" d="M29.5935 12.1435C29.7882 11.4642 29.8433 10.7495 29.7553 10.0464C29.7044 9.30925 29.7044 8.56921 29.7553 7.83207C29.9047 7.83207 30.0666 8.1056 30.3779 8.43124C30.6891 8.75687 33.2539 11.5573 33.6648 11.87C33.8081 12.0095 33.9809 12.1118 34.1691 12.1683C34.3574 12.2249 34.5557 12.2343 34.748 12.1956C35.109 12.1956 35.6818 12.1956 35.881 11.9351C35.881 11.5573 35.1588 10.9582 34.8476 10.6325C34.5363 10.3069 34.1379 9.89009 33.7768 9.44722C32.9849 8.71809 32.2443 7.93018 31.5606 7.08961C31.5606 6.97239 34.3869 4.48452 34.9098 4.01561C35.109 3.79417 35.3207 3.74207 35.2709 3.41644C34.6301 3.20962 33.9445 3.20962 33.3037 3.41644C33.0547 3.53366 31.349 5.14882 30.8883 5.57866C30.7389 5.73497 29.8549 6.71188 29.7553 6.65977C29.6059 6.16481 29.7553 -0.569355 29.6557 -0.947094C29.5561 -1.32483 27.8006 -0.725661 27.8504 -0.0743878C27.948 0.383206 27.9981 0.85049 27.9998 1.31934V10.6325C27.9998 10.9582 27.9002 11.9351 28.1119 12.0914C28.5963 12.2209 29.1018 12.2387 29.5935 12.1435Z" fill="#221F20"/>
<path id="Vector_5" fill-rule="evenodd" clip-rule="evenodd" d="M16.1825 7.72779C16.7553 7.57149 18.6726 8.05343 18.7598 8.58747C18.8096 9.16376 18.8096 9.74357 18.7598 10.3199C18.3987 10.8018 15.9211 11.7657 15.0994 10.0463C14.9886 9.80208 14.9312 9.53513 14.9312 9.2648C14.9312 8.99447 14.9886 8.72752 15.0994 8.48327C15.2189 8.28468 15.3772 8.11473 15.5638 7.98454C15.7505 7.85436 15.9613 7.76686 16.1825 7.72779ZM18.8096 7.07652C18.3258 6.74121 17.7847 6.5068 17.2159 6.38617C16.5072 6.30406 15.7901 6.35702 15.0994 6.54248C14.5178 6.71674 14.005 7.08162 13.6364 7.58348C13.2678 8.08534 13.0629 8.69769 13.0517 9.33047C13.0406 9.96326 13.2238 10.5831 13.5745 11.0988C13.9251 11.6145 14.4247 11.999 14.9997 12.1955C15.9845 12.5469 17.0529 12.5469 18.0377 12.1955C18.2493 12.0913 18.6602 11.8178 18.8096 11.7657C18.959 11.7136 19.0213 12.1434 19.2205 12.2476C19.4197 12.3518 20.3535 12.2476 20.6149 11.9871C20.8764 11.7266 20.9262 11.7657 20.7643 11.3879C20.5234 10.8895 20.4364 10.3252 20.5153 9.77279V5.8912C20.5804 5.3416 20.4521 4.78598 20.1542 4.32815C19.1707 2.28315 13.2442 3.09073 13.7173 4.82311C14.1905 6.5555 14.9624 4.22394 17.577 4.54958C18.9839 4.70589 18.8345 6.11264 18.8345 7.07652H18.8096Z" fill="#221F20"/>
<path id="Vector_6" fill-rule="evenodd" clip-rule="evenodd" d="M79.7572 6.81637H75.4867C75.5439 6.28154 75.7772 5.7842 76.1466 5.40962C76.5497 5.03973 77.0563 4.81588 77.5908 4.77137C77.8693 4.74731 78.1495 4.7822 78.4147 4.87395C78.68 4.96571 78.9248 5.11245 79.1347 5.30541C79.3459 5.48723 79.5126 5.71919 79.6209 5.982C79.7292 6.2448 79.7759 6.53086 79.7572 6.81637ZM75.3746 8.21009C75.6859 8.05378 80.3548 8.21009 81.2015 8.21009C82.0481 8.21009 81.6621 5.30541 80.1183 4.1201C79.4875 3.62816 78.7367 3.33287 77.9524 3.26832C77.1681 3.20378 76.3823 3.37261 75.6859 3.75533C74.9894 4.13804 74.4105 4.71903 74.0162 5.43123C73.6219 6.14342 73.4281 6.95776 73.4573 7.78025C73.4277 8.57909 73.6054 9.37141 73.9715 10.0731C74.3375 10.7749 74.8783 11.3599 75.5365 11.766C76.9185 12.7429 80.6287 12.6908 81.0894 11.1799C81.6621 9.2391 80.3175 10.3202 79.8444 10.5286C79.4465 10.6993 79.0271 10.8089 78.5993 10.8543C75.8478 11.1799 75.1754 8.63993 75.3746 8.21009Z" fill="#221F20"/>
<path id="Vector_7" fill-rule="evenodd" clip-rule="evenodd" d="M56.6874 6.81567C56.731 6.25934 56.9728 5.74044 57.3648 5.36172C57.7568 4.983 58.2704 4.77206 58.804 4.77067C59.8747 4.65344 61.1197 5.63035 60.9081 6.81567H56.6874ZM56.4757 8.11821C56.7372 8.11821 61.5804 8.11821 62.2527 8.11821C62.9251 8.11821 62.813 7.68837 62.7632 7.15433C62.7268 6.4311 62.5115 5.73015 62.1383 5.12015C61.7652 4.51015 61.2469 4.01201 60.6344 3.67454C60.0219 3.33707 59.3361 3.17183 58.6442 3.19501C57.9523 3.2182 57.278 3.429 56.6874 3.80679C56.0233 4.21726 55.4801 4.81131 55.1177 5.52366C54.7553 6.23602 54.5876 7.03911 54.633 7.84468C54.5802 8.6399 54.7514 9.43388 55.1253 10.1284C55.4993 10.8229 56.0597 11.3875 56.7372 11.7523C58.4927 12.8855 61.9415 12.4036 62.2527 11.1141C62.2527 10.7363 62.5017 9.81152 61.9415 10.033C61.2647 10.4332 60.528 10.7107 59.7626 10.8536C59.3546 10.9106 58.9399 10.8824 58.5424 10.7706C58.1449 10.6588 57.7725 10.4656 57.4468 10.2023C56.9986 9.82455 56.2765 8.69133 56.4757 8.11821Z" fill="#221F20"/>
<path id="Vector_8" fill-rule="evenodd" clip-rule="evenodd" d="M84.4391 12.1952C84.7504 11.8696 84.7006 11.7133 84.7006 11.2313V9.9288C84.7006 8.20944 84.3893 5.35686 86.2943 4.92702C86.7051 4.82282 86.8047 5.18753 87.3277 5.08333C87.636 4.79389 87.8676 4.42595 88 4.01524C88 3.19464 86.7549 3.03833 85.6219 3.57238C85.2609 3.74171 84.9621 4.32785 84.7006 4.37996C84.7006 3.89801 84.8002 3.68961 84.4889 3.25977C84.0899 3.2998 83.7036 3.42859 83.3559 3.6375C82.8455 3.89801 82.7459 3.89801 82.8455 4.54929C82.9451 5.20056 82.8455 9.66829 82.8455 10.7364C82.8953 12.3646 82.8953 12.3125 84.4391 12.1952Z" fill="#221F20"/>
<path id="Vector_9" fill-rule="evenodd" clip-rule="evenodd" d="M23.7306 12.1436V12.0394C23.8751 10.7165 23.9126 9.38312 23.8427 8.0536C23.8427 7.02458 24.0917 5.35733 25.1749 5.03169C26.0464 4.70605 26.0962 5.56573 26.6689 5.03169C28.0011 3.57284 26.2083 2.98669 25.1251 3.46863C24.0419 3.95058 24.1913 4.32832 23.88 4.43252C23.855 4.22057 23.855 4.00622 23.88 3.79427C23.88 3.52074 23.768 3.52074 23.6684 3.36443C23.2692 3.36103 22.8769 3.47377 22.5354 3.69007C22.0249 3.89847 21.8631 3.95058 22.0249 4.60185C22.1344 5.60045 22.1677 6.60659 22.1245 7.61073V10.5805C22.2366 12.1957 22.0249 12.3129 23.7306 12.1436Z" fill="#221F20"/>
<path id="Vector_10" fill-rule="evenodd" clip-rule="evenodd" d="M46.9509 13.8761C44.8955 14.1414 42.8746 14.6437 40.9248 15.374C40.3148 15.6476 39.6798 15.8039 39.0697 16.0774C37.8247 16.5593 36.6543 16.9892 35.4217 17.4841C35.0109 17.6405 32.0725 18.5522 31.5621 18.6695C29.072 19.3077 25.3368 20.0632 22.9588 18.93C21.8258 18.3438 21.7137 20.1674 24.291 20.8187C25.7982 21.0948 27.3448 21.0237 28.823 20.6103C30.068 20.3367 31.5621 19.8548 32.7449 19.477C33.9277 19.0993 35.3221 18.6695 36.6045 18.2917C36.9158 18.1745 37.1648 18.0703 37.5258 17.9661L39.4308 17.3669C39.7918 17.2627 40.0533 17.1064 40.3646 16.9892L42.3317 16.5072C42.6928 16.403 42.9543 16.2988 43.2655 16.1816C45.8723 15.5998 48.5311 15.3116 51.1965 15.3219C51.8563 15.3219 52.8399 15.4913 53.5123 15.5955C54.7573 15.7518 54.4834 15.0614 53.6617 14.6185C51.5251 13.7621 49.2114 13.5061 46.9509 13.8761Z" fill="#F9CC46"/>
</g>
</g>
</g>
<defs>
<clipPath id="clip0_294_1033">
<rect width="88" height="21" fill="white"/>
</clipPath>
</defs>
</svg>
