<svg width="56" height="56" viewBox="0 0 56 56" fill="none" xmlns="http://www.w3.org/2000/svg">
<g id="contract-done 1">
<path id="Shape" d="M33.3333 8.29979V14.3333C33.3333 15.622 34.378 16.6666 35.6667 16.6666H41.7002L33.3333 8.29979ZM42.6667 21.3333H35.6667C31.8007 21.3333 28.6667 18.1993 28.6667 14.3333V7.33329H14.3333C11.756 7.33329 9.66667 9.42263 9.66667 12V44C9.66667 46.5773 11.756 48.6666 14.3333 48.6666H28.6667C29.9553 48.6666 31 49.7113 31 51C31 52.2886 29.9553 53.3333 28.6667 53.3333H14.3333C9.17868 53.3333 5 49.1546 5 44V12C5 6.8453 9.17868 2.66663 14.3333 2.66663H34.2998L47.3333 15.7001V32.3333C47.3333 33.622 46.2887 34.6666 45 34.6666C43.7113 34.6666 42.6667 33.622 42.6667 32.3333V21.3333ZM37.3166 44.6834L40.1399 47.5066L47.8446 37.8757C48.6497 36.8694 50.118 36.7062 51.1243 37.5113C52.1306 38.3163 52.2937 39.7846 51.4887 40.7909L42.3182 52.254C42.2275 52.3633 42.2275 52.3633 42.1289 52.4655C41.1265 53.4679 39.5014 53.4679 38.4991 52.4655L34.0168 47.9832C33.1055 47.072 33.1055 45.5946 34.0168 44.6834C34.928 43.7721 36.4054 43.7721 37.3166 44.6834Z" fill="#94C22B"/>
</g>
</svg>
