<svg width="56" height="56" viewBox="0 0 56 56" fill="none" xmlns="http://www.w3.org/2000/svg">
<g id="user-doc 1" clip-path="url(#clip0_294_797)">
<g id="user_doc">
<g id="full">
<path id="Shape" d="M43.6333 37.8524C48.1165 38.8186 51.3337 41.0935 51.3337 44.3334C51.3337 48.7165 45.4457 51.3334 38.5003 51.3334C31.555 51.3334 25.667 48.7165 25.667 44.3334C25.667 41.0935 28.8841 38.8186 33.3674 37.8524C31.5169 36.3552 30.3337 34.0658 30.3337 31.5001C30.3337 26.9898 33.99 23.3334 38.5003 23.3334C43.0107 23.3334 46.667 26.9898 46.667 31.5001C46.667 34.0658 45.4838 36.3552 43.6333 37.8524ZM23.3337 46.6668C24.6223 46.6668 25.667 47.7114 25.667 49.0001C25.667 50.2887 24.6223 51.3334 23.3337 51.3334H14.0003C8.84567 51.3334 4.66699 47.1547 4.66699 42.0001V14.0001C4.66699 8.84542 8.84567 4.66675 14.0003 4.66675H42.0003C47.155 4.66675 51.3337 8.84542 51.3337 14.0001V21.0001C51.3337 22.2887 50.289 23.3334 49.0003 23.3334C47.7117 23.3334 46.667 22.2887 46.667 21.0001V14.0001C46.667 11.4228 44.5777 9.33342 42.0003 9.33342H14.0003C11.423 9.33342 9.33366 11.4228 9.33366 14.0001V42.0001C9.33366 44.5774 11.423 46.6668 14.0003 46.6668H23.3337ZM16.3337 18.6667C15.045 18.6667 14.0003 17.6221 14.0003 16.3334C14.0003 15.0448 15.045 14.0001 16.3337 14.0001H39.667C40.9557 14.0001 42.0003 15.0448 42.0003 16.3334C42.0003 17.6221 40.9557 18.6667 39.667 18.6667H16.3337ZM16.3337 28.0001C15.045 28.0001 14.0003 26.9554 14.0003 25.6667C14.0003 24.3781 15.045 23.3334 16.3337 23.3334H21.0003C22.289 23.3334 23.3337 24.3781 23.3337 25.6667C23.3337 26.9554 22.289 28.0001 21.0003 28.0001H16.3337ZM16.3337 37.3334C15.045 37.3334 14.0003 36.2887 14.0003 35.0001C14.0003 33.7114 15.045 32.6667 16.3337 32.6667H21.0003C22.289 32.6667 23.3337 33.7114 23.3337 35.0001C23.3337 36.2887 22.289 37.3334 21.0003 37.3334H16.3337ZM30.5157 44.1255C30.3756 44.2728 30.3399 44.3357 30.3345 44.3314C30.3399 44.3311 30.3756 44.3941 30.5157 44.5413C30.8123 44.8529 31.3269 45.1915 32.0234 45.501C33.6628 46.2297 35.9879 46.6668 38.5003 46.6668C41.0128 46.6668 43.3378 46.2297 44.9773 45.501C45.6738 45.1915 46.1884 44.8529 46.4849 44.5413C46.6251 44.3941 46.6608 44.3311 46.6662 44.3355C46.6608 44.3357 46.625 44.2727 46.4849 44.1255C46.1884 43.8139 45.6738 43.4754 44.9773 43.1658C43.3378 42.4372 41.0128 42.0001 38.5003 42.0001C35.9879 42.0001 33.6628 42.4372 32.0234 43.1658C31.3269 43.4754 30.8123 43.8139 30.5157 44.1255ZM38.5003 35.0001C40.4333 35.0001 42.0003 33.4331 42.0003 31.5001C42.0003 29.5671 40.4333 28.0001 38.5003 28.0001C36.5673 28.0001 35.0003 29.5671 35.0003 31.5001C35.0003 33.4331 36.5673 35.0001 38.5003 35.0001Z" fill="#94C22B"/>
</g>
</g>
</g>
<defs>
<clipPath id="clip0_294_797">
<rect width="56" height="56" fill="white"/>
</clipPath>
</defs>
</svg>
