<svg width="56" height="56" viewBox="0 0 56 56" fill="none" xmlns="http://www.w3.org/2000/svg">
<g id="shield 2" clip-path="url(#clip0_294_787)">
<g id="shield">
<g id="full">
<path id="Path-2" d="M28.7382 51.2136L28.0003 51.4596L27.2625 51.2136C12.3888 46.2557 4.66699 37.676 4.66699 25.6667V11.9513C4.66699 10.5338 5.81613 9.38465 7.23366 9.38465C7.48698 9.393 7.48698 9.393 7.73702 9.43449L13.2913 10.5453C16.1706 11.1212 19.1472 10.22 21.2236 8.14364L23.0506 6.31661C25.7843 3.58294 30.2164 3.58294 32.9501 6.31661L34.7771 8.14364C36.8534 10.22 39.8301 11.1212 42.7094 10.5453L48.2636 9.43449C49.6536 9.15649 51.0058 10.0579 51.2838 11.448C51.3253 11.698 51.3253 11.698 51.3337 11.9513V25.6667C51.3337 37.676 43.6119 46.2557 28.7382 51.2136ZM46.667 25.6667V14.5129L43.6246 15.1214C39.2152 16.0033 34.6569 14.6231 31.4773 11.4435L29.6502 9.61644C28.739 8.70522 27.2616 8.70522 26.3504 9.61644L24.5234 11.4435C21.3438 14.6231 16.7854 16.0033 12.3761 15.1214L9.33366 14.5129V25.6667C9.33366 35.2504 15.3765 42.146 28.0003 46.5352C40.6242 42.146 46.667 35.2504 46.667 25.6667Z" fill="#94C22B"/>
</g>
</g>
</g>
<defs>
<clipPath id="clip0_294_787">
<rect width="56" height="56" fill="white"/>
</clipPath>
</defs>
</svg>
