<svg width="56" height="56" viewBox="0 0 56 56" fill="none" xmlns="http://www.w3.org/2000/svg">
<path d="M17 51H39C43.4183 51 47 47.4183 47 43V17L35 5H17C12.5817 5 9 8.58172 9 13V43C9 47.4183 12.5817 51 17 51Z" stroke="#94C22B" stroke-width="5"/>
<path d="M33 5V15C33 17.2091 34.7909 19 37 19H47" stroke="#94C22B" stroke-width="5" stroke-linecap="round"/>
<path fill-rule="evenodd" clip-rule="evenodd" d="M22.5 34.5C22.5 35.8807 21.3807 37 20 37C18.6193 37 17.5 35.8807 17.5 34.5C17.5 33.1193 18.6193 32 20 32C21.3807 32 22.5 33.1193 22.5 34.5ZM30.5 34.5C30.5 35.8807 29.3807 37 28 37C26.6193 37 25.5 35.8807 25.5 34.5C25.5 33.1193 26.6193 32 28 32C29.3807 32 30.5 33.1193 30.5 34.5ZM36 37C37.3807 37 38.5 35.8807 38.5 34.5C38.5 33.1193 37.3807 32 36 32C34.6193 32 33.5 33.1193 33.5 34.5C33.5 35.8807 34.6193 37 36 37Z" fill="#94C22B"/>
</svg>
