<?xml version="1.0" encoding="utf-8"?><svg xmlns="http://www.w3.org/2000/svg" xmlns:xlink="http://www.w3.org/1999/xlink"><symbol viewBox="0 0 32 32" id="cabinet" xmlns="http://www.w3.org/2000/svg"><g clip-path="url(#aclip0_294_1115)"><path d="M16 0C7.326 0 0 7.326 0 16s7.326 16 16 16 16-7.326 16-16S24.674 0 16 0zm0 8c2.763 0 4.8 2.035 4.8 4.8 0 2.765-2.037 4.8-4.8 4.8-2.762 0-4.8-2.035-4.8-4.8 0-2.765 2.038-4.8 4.8-4.8zM7.83 23.635c1.436-2.112 3.83-3.52 6.57-3.52h3.2c2.742 0 5.134 1.408 6.57 3.52C22.125 25.824 19.224 27.2 16 27.2s-6.125-1.376-8.17-3.565z"/></g><defs><clipPath id="aclip0_294_1115"><path d="M0 0h32v32H0z"/></clipPath></defs></symbol><symbol viewBox="0 0 10 11" id="cross" xmlns="http://www.w3.org/2000/svg"><path d="M9.3.901L.433 9.768m0-8.867L9.3 9.768"/></symbol><symbol viewBox="0 0 14 16" id="phone" xmlns="http://www.w3.org/2000/svg"><g clip-path="url(#cclip0_294_775)"><path d="M4.51 1.22C4.298.677 3.742.387 3.212.54l-2.406.704C.33 1.384 0 1.848 0 2.374 0 9.624 5.485 15.5 12.25 15.5c.492 0 .924-.355 1.056-.864l.656-2.579c.145-.568-.126-1.163-.634-1.388l-2.625-1.172a1.044 1.044 0 00-1.267.34L8.332 11.28c-1.925-.976-3.484-2.645-4.394-4.708l1.348-1.18c.374-.329.503-.88.317-1.357L4.509 1.224V1.22z"/></g><defs><clipPath id="cclip0_294_775"><path transform="matrix(-1 0 0 1 14 .5)" d="M0 0h14v15H0z"/></clipPath></defs></symbol><symbol viewBox="0 0 40 40" id="swiper-arrow-left" xmlns="http://www.w3.org/2000/svg"><rect width="40" height="40" rx="20"/><path d="M26 21a1 1 0 100-2v2zm-12.707-1.707a1 1 0 000 1.414l6.364 6.364a1 1 0 001.414-1.414L15.414 20l5.657-5.657a1 1 0 00-1.414-1.414l-6.364 6.364zM26 19H14v2h12v-2z"/></symbol></svg>