<?xml version="1.0" encoding="utf-8"?><svg xmlns="http://www.w3.org/2000/svg" xmlns:xlink="http://www.w3.org/1999/xlink"><symbol fill="none" viewBox="0 0 21 20" id="arrow-down" xmlns="http://www.w3.org/2000/svg"><path fill="#2C2C2C" d="M0 0h21v20H0z"/><g clip-path="url(#aclip0_292_706)"><path fill="#fff" d="M-910-1410H810v5028H-910z"/><rect x="-794" y="-22" width="1488" height="64" rx="20" fill="#FAFAFA"/><g clip-path="url(#aclip1_292_706)"><path d="M6.883 7.158l3.825 3.817 3.825-3.817 1.175 1.175-5 5-5-5 1.175-1.175z" fill="#000"/></g></g><defs><clipPath id="aclip0_292_706"><path fill="#fff" transform="translate(-910 -1410)" d="M0 0h1720v5028H0z"/></clipPath><clipPath id="aclip1_292_706"><path fill="#fff" transform="rotate(90 10.25 10.25)" d="M0 0h20v20H0z"/></clipPath></defs></symbol><symbol fill="none" viewBox="0 0 56 56" id="mail-icon" xmlns="http://www.w3.org/2000/svg"><g clip-path="url(#bclip0_294_936)"><path d="M46.58 17.766A4.668 4.668 0 0042 14H14c-2.27 0-4.16 1.62-4.58 3.766 5.595 5.295 11.758 7.9 18.58 7.9 6.822 0 12.984-2.605 18.58-7.9zm.087 6.056C41.022 28.146 34.782 30.333 28 30.333c-6.782 0-13.022-2.187-18.667-6.511v13.511A4.667 4.667 0 0014 42h28a4.667 4.667 0 004.667-4.667V23.822zM14 9.333h28a9.333 9.333 0 019.333 9.334v18.666A9.333 9.333 0 0142 46.667H14a9.333 9.333 0 01-9.333-9.334V18.667A9.333 9.333 0 0114 9.333z" fill="#94C22B"/></g><defs><clipPath id="bclip0_294_936"><path fill="#fff" d="M0 0h56v56H0z"/></clipPath></defs></symbol><symbol fill="none" viewBox="0 0 56 56" id="phone-icon" xmlns="http://www.w3.org/2000/svg"><g clip-path="url(#cclip0_294_946)"><path d="M13.947 27.135l4.227-2.113a9.333 9.333 0 005.16-8.348V14A9.333 9.333 0 0014 4.667a8.891 8.891 0 00-8.804 10.135c1.353 9.576 5.3 17.661 11.82 24.181 6.52 6.52 14.607 10.468 24.182 11.82A8.891 8.891 0 0051.333 42 9.333 9.333 0 0042 32.667h-2.674a9.333 9.333 0 00-8.348 5.16l-2.113 4.226c-3.123-1.669-5.97-3.791-8.548-6.37-2.579-2.578-4.701-5.425-6.37-8.548zm21.205 12.778a4.667 4.667 0 014.174-2.58H42A4.667 4.667 0 0146.667 42a4.225 4.225 0 01-4.816 4.183c-3.096-.437-6.006-1.171-8.733-2.202l2.034-4.068zM9.817 14.15A4.223 4.223 0 0114 9.333 4.667 4.667 0 0118.667 14v2.674a4.667 4.667 0 01-2.58 4.174l-4.068 2.034c-1.03-2.727-1.765-5.637-2.202-8.733z" fill="#94C22B"/></g><defs><clipPath id="cclip0_294_946"><path fill="#fff" d="M0 0h56v56H0z"/></clipPath></defs></symbol><symbol fill="none" viewBox="0 0 16 16" id="warning" xmlns="http://www.w3.org/2000/svg"><path d="M8.895 5.83V13H7.111V5.83h1.784zM7 3.96c0-.277.09-.507.272-.688C7.452 3.09 7.695 3 8 3c.3 0 .541.09.722.272.185.18.278.41.278.689a.923.923 0 01-.278.69c-.18.18-.422.27-.722.27-.305 0-.547-.09-.728-.27A.934.934 0 017 3.96z" fill="#C5C5C5"/><rect x=".5" y=".5" width="15" height="15" rx="7.5" stroke="#C5C5C5"/></symbol></svg>