<svg width="56" height="56" viewBox="0 0 56 56" fill="none" xmlns="http://www.w3.org/2000/svg">
<g id="cashback 1" clip-path="url(#clip0_294_807)">
<g id="cashback">
<g id="full">
<path id="Shape" d="M34.1091 42.0001H44.3337C45.6223 42.0001 46.667 40.9554 46.667 39.6667C46.667 38.3781 45.6223 37.3334 44.3337 37.3334H39.667C38.3783 37.3334 37.3337 36.2887 37.3337 35.0001C37.3337 33.7114 38.3783 32.6667 39.667 32.6667H44.3337C48.1997 32.6667 51.3337 35.8008 51.3337 39.6667C51.3337 43.5327 48.1997 46.6667 44.3337 46.6667H34.1091L34.754 47.9566C35.3303 49.1092 34.8631 50.5108 33.7105 51.0871C32.5579 51.6634 31.1563 51.1962 30.58 50.0436L27.7249 44.3334L30.58 38.6232C31.1563 37.4706 32.5579 37.0034 33.7105 37.5798C34.8631 38.1561 35.3303 39.5576 34.754 40.7102L34.1091 42.0001ZM16.3337 25.6667C15.045 25.6667 14.0003 24.6221 14.0003 23.3334C14.0003 22.0448 15.045 21.0001 16.3337 21.0001C17.6223 21.0001 18.667 22.0448 18.667 23.3334C18.667 24.6221 17.6223 25.6667 16.3337 25.6667ZM39.667 25.6667C38.3783 25.6667 37.3337 24.6221 37.3337 23.3334C37.3337 22.0448 38.3783 21.0001 39.667 21.0001C40.9557 21.0001 42.0003 22.0448 42.0003 23.3334C42.0003 24.6221 40.9557 25.6667 39.667 25.6667ZM28.0003 30.3334C24.1343 30.3334 21.0003 27.1994 21.0003 23.3334C21.0003 19.4674 24.1343 16.3334 28.0003 16.3334C31.8663 16.3334 35.0003 19.4674 35.0003 23.3334C35.0003 27.1994 31.8663 30.3334 28.0003 30.3334ZM28.0003 25.6667C29.289 25.6667 30.3337 24.6221 30.3337 23.3334C30.3337 22.0448 29.289 21.0001 28.0003 21.0001C26.7117 21.0001 25.667 22.0448 25.667 23.3334C25.667 24.6221 26.7117 25.6667 28.0003 25.6667ZM23.3337 37.3334C24.6223 37.3334 25.667 38.3781 25.667 39.6667C25.667 40.9554 24.6223 42.0001 23.3337 42.0001H14.0003C8.84567 42.0001 4.66699 37.8214 4.66699 32.6667V14.0001C4.66699 8.84542 8.84567 4.66675 14.0003 4.66675H42.0003C47.155 4.66675 51.3337 8.84542 51.3337 14.0001V28.0001C51.3337 29.2887 50.289 30.3334 49.0003 30.3334C47.7117 30.3334 46.667 29.2887 46.667 28.0001V14.0001C46.667 11.4228 44.5777 9.33341 42.0003 9.33341H14.0003C11.423 9.33341 9.33366 11.4228 9.33366 14.0001V32.6667C9.33366 35.2441 11.423 37.3334 14.0003 37.3334H23.3337Z" fill="#94C22B"/>
</g>
</g>
</g>
<defs>
<clipPath id="clip0_294_807">
<rect width="56" height="56" fill="white"/>
</clipPath>
</defs>
</svg>
