<svg width="56" height="56" viewBox="0 0 56 56" fill="none" xmlns="http://www.w3.org/2000/svg">
<g clip-path="url(#clip0_294_844)">
<path d="M44.0575 42H39.6666C38.378 42 37.3333 40.9553 37.3333 39.6666C37.3333 38.378 38.378 37.3333 39.6666 37.3333H45.5C45.6377 37.3333 45.7726 37.3452 45.9038 37.3681C46.2024 36.4373 46.48 35.4593 46.7363 34.434C46.8879 33.8277 47.0236 33.2385 47.1435 32.6666H42C40.7113 32.6666 39.6666 31.622 39.6666 30.3333C39.6666 29.0446 40.7113 28 42 28H47.7993C47.8508 27.0907 47.8438 26.248 47.7791 25.4727C47.6783 24.2634 46.6674 23.3333 45.4539 23.3333H23.3333C20.756 23.3333 18.6666 21.244 18.6666 18.6666V11.0833C18.6666 10.1168 17.8831 9.33329 16.9166 9.33329C15.7405 9.33329 14.7445 10.2005 14.5827 11.3655L10.4171 41.358C10.3875 41.5707 10.3727 41.7852 10.3727 42C10.3727 44.5773 12.4621 46.6666 15.0394 46.6666H38.6979C40.2668 46.6666 41.7307 45.8783 42.5942 44.5684C43.1121 43.7826 43.6001 42.9265 44.0575 42ZM52.4297 25.0848C52.6745 28.0203 52.2784 31.5067 51.2636 35.5659C50.1054 40.1988 48.5208 44.0568 46.4905 47.1368C44.7635 49.7566 41.8357 51.3333 38.6979 51.3333H15.0394C9.88473 51.3333 5.70605 47.1546 5.70605 42C5.70605 41.5704 5.7357 41.1414 5.79479 40.716L9.96042 10.7235C10.4426 7.25143 13.4113 4.66663 16.9166 4.66663C20.4605 4.66663 23.3333 7.53947 23.3333 11.0833V18.6666H45.454C49.0943 18.6667 52.127 21.457 52.4297 25.0848Z" fill="#94C22B"/>
</g>
<defs>
<clipPath id="clip0_294_844">
<rect width="56" height="56" fill="white"/>
</clipPath>
</defs>
</svg>
