<svg width="14" height="16" viewBox="0 0 14 16" fill="none" xmlns="http://www.w3.org/2000/svg">
<g clip-path="url(#clip0_294_775)">
<path d="M4.5091 1.22057C4.29855 0.675648 3.74347 0.385609 3.21301 0.540883L0.806756 1.24401C0.330976 1.38463 0.000116348 1.84752 0.000116348 2.37487C0.000116348 9.62291 5.48527 15.4999 12.2501 15.4999C12.7423 15.4999 13.1743 15.1454 13.3056 14.6356L13.9618 12.0575C14.1068 11.4891 13.8361 10.8944 13.3275 10.6688L10.7025 9.49694C10.2568 9.29772 9.73996 9.43541 9.43644 9.83678L8.33176 11.2811C6.40676 10.3055 4.84816 8.63561 3.93762 6.57311L5.28566 5.39245C5.66027 5.06432 5.78879 4.51354 5.60285 4.036L4.5091 1.2235V1.22057Z" fill="black"/>
</g>
<defs>
<clipPath id="clip0_294_775">
<rect width="14" height="15" fill="white" transform="matrix(-1 0 0 1 14 0.5)"/>
</clipPath>
</defs>
</svg>
