<svg width="56" height="56" viewBox="0 0 56 56" fill="none" xmlns="http://www.w3.org/2000/svg">
<g id="mail 1" clip-path="url(#clip0_294_936)">
<g id="mail">
<g id="full">
<path id="Shape" d="M46.5798 17.7661C46.1602 15.6197 44.2693 13.9999 42 13.9999H14C11.7307 13.9999 9.83969 15.6197 9.42009 17.7661C15.0155 23.0612 21.1782 25.6666 28 25.6666C34.8217 25.6666 40.9845 23.0612 46.5798 17.7661ZM46.6666 23.8217C41.0223 28.1459 34.7818 30.3333 28 30.3333C21.2181 30.3333 14.9776 28.1459 9.33329 23.8217V37.3333C9.33329 39.9106 11.4226 41.9999 14 41.9999H42C44.5773 41.9999 46.6666 39.9106 46.6666 37.3333V23.8217ZM14 9.33325H42C47.1546 9.33325 51.3333 13.5119 51.3333 18.6666V37.3333C51.3333 42.4879 47.1546 46.6666 42 46.6666H14C8.8453 46.6666 4.66663 42.4879 4.66663 37.3333V18.6666C4.66663 13.5119 8.8453 9.33325 14 9.33325Z" fill="#94C22B"/>
</g>
</g>
</g>
<defs>
<clipPath id="clip0_294_936">
<rect width="56" height="56" fill="white"/>
</clipPath>
</defs>
</svg>
