<svg width="56" height="56" viewBox="0 0 56 56" fill="none" xmlns="http://www.w3.org/2000/svg">
<g clip-path="url(#clip0_294_946)">
<path d="M13.9473 27.1352L18.174 25.0218C21.336 23.4408 23.3334 20.209 23.3334 16.6738V14.0001C23.3334 8.84542 19.1547 4.66675 14 4.66675C9.08953 4.66675 5.10876 8.64751 5.10876 13.558C5.10876 13.9742 5.13799 14.3899 5.19624 14.802C6.54901 24.3776 10.4967 32.4632 17.0168 38.9833C23.5369 45.5035 31.6225 49.4511 41.1984 50.8039C46.0606 51.4908 50.5591 48.1061 51.246 43.2438C51.3042 42.8318 51.3334 42.4162 51.3334 42.0001C51.3334 36.8454 47.1547 32.6667 42 32.6667H39.3263C35.7911 32.6667 32.5593 34.6641 30.9783 37.8261L28.8649 42.0528C25.742 40.3841 22.8948 38.2617 20.3166 35.6835C17.7385 33.1053 15.616 30.2581 13.9473 27.1352ZM35.1523 39.9131C35.9428 38.3321 37.5587 37.3334 39.3263 37.3334H42C44.5774 37.3334 46.6667 39.4228 46.6667 42.0001C46.6667 42.1978 46.6528 42.3953 46.6252 42.591C46.2988 44.9013 44.1614 46.5095 41.8512 46.1831C38.755 45.7457 35.8452 45.012 33.1184 43.981L35.1523 39.9131ZM9.81699 14.149C9.78931 13.9531 9.77543 13.7557 9.77543 13.558C9.77543 11.2248 11.6669 9.33341 14 9.33341C16.5774 9.33341 18.6667 11.4228 18.6667 14.0001V16.6738C18.6667 18.4414 17.668 20.0573 16.087 20.8478L12.0192 22.8818C10.9881 20.1549 10.2544 17.2452 9.81699 14.149Z" fill="#94C22B"/>
</g>
<defs>
<clipPath id="clip0_294_946">
<rect width="56" height="56" fill="white"/>
</clipPath>
</defs>
</svg>
